Coordinates
version=1
nRows=26
nColumns=24
inDegrees=yes

Units are S.I. units (second, meters, Newtons, ...)
Angles are in degrees.

endheader
time	pelvis_tilt	pelvis_list	pelvis_rotation	pelvis_tx	pelvis_ty	pelvis_tz	hip_flexion_r	hip_adduction_r	hip_rotation_r	knee_angle_r	ankle_angle_r	subtalar_angle_r	mtp_angle_r	hip_flexion_l	hip_adduction_l	hip_rotation_l	knee_angle_l	ankle_angle_l	subtalar_angle_l	mtp_angle_l	lumbar_extension	lumbar_bending	lumbar_rotation
      6.59500000	     13.48784002	     -5.51925484	     19.90053890	      2.55065224	      0.93785557	     -0.19284231	    -10.12385021	     12.71488886	     -7.25002510	     -6.27656132	     18.87417661	     -7.68865609	      0.00000000	      4.35309026	     -9.23751039	     12.52763020	    -66.64945623	     16.60997201	     -3.66650403	      0.00000000	    -24.68199262	     10.44295757	    -13.78662812
      6.60000000	     13.38877531	     -5.29366030	     19.52805621	      2.55624152	      0.93829469	     -0.19221385	    -10.66233763	     12.53907573	     -7.08268391	     -5.92548304	     19.02814543	     -7.39425535	      0.00000000	      4.98788201	     -8.67597950	     12.11427634	    -66.30159320	     17.02525207	     -3.63894395	      0.00000000	    -24.76455950	     10.05216172	    -13.28064131
      6.60500000	     13.29666583	     -5.08052283	     19.13177075	      2.56182084	      0.93869797	     -0.19157482	    -11.19774264	     12.36555976	     -6.91508202	     -5.58538161	     19.17834999	     -7.07907428	      0.00000000	      5.59980314	     -8.14201715	     11.67500404	    -65.86728142	     17.41934614	     -3.55693815	      0.00000000	    -24.85135827	      9.66812294	    -12.74270126
      6.61000000	     13.23714316	     -4.86640558	     18.70603911	      2.56742993	      0.93909853	     -0.19090023	    -11.76903439	     12.19266063	     -6.71953911	     -5.24500865	     19.31504901	     -6.78970651	      0.00000000	      6.15027810	     -7.63872810	     11.19381013	    -65.33897402	     17.78798829	     -3.42013597	      0.00000000	    -24.96994200	      9.27702862	    -12.16349545
      6.61500000	     13.14057825	     -4.68475212	     18.30603963	      2.57295218	      0.93937432	     -0.19028174	    -12.26358811	     12.03113972	     -6.60112662	     -4.94303331	     19.49526485	     -6.41617925	      0.00000000	      6.75211854	     -7.15453798	     10.75710726	    -64.74689053	     18.17149254	     -3.25331767	      0.00000000	    -25.03915474	      8.92778646	    -11.62006162
      6.62000000	     13.04785518	     -4.51371180	     17.89183279	      2.57845553	      0.93960017	     -0.18966911	    -12.74925521	     11.87177526	     -6.47168263	     -4.65833230	     19.67244860	     -6.04811088	      0.00000000	      7.33480066	     -6.69348091	     10.31029184	    -64.07390419	     18.54875442	     -3.03247041	      0.00000000	    -25.11488447	      8.58500999	    -11.06584159
      6.62500000	     12.97961002	     -4.35138999	     17.45296792	      2.58398550	      0.93981687	     -0.18902337	    -13.25719678	     11.71898883	     -6.32886851	     -4.37710875	     19.83644919	     -5.69059674	      0.00000000	      7.86800049	     -6.27183601	      9.83274369	    -63.31067463	     18.88374239	     -2.78189611	      0.00000000	    -25.20897869	      8.24566201	    -10.47108481
      6.63000000	     12.89748216	     -4.20945891	     17.04682871	      2.58944977	      0.93992930	     -0.18844267	    -13.72245492	     11.58049305	     -6.22224627	     -4.12566483	     20.04364735	     -5.32404997	      0.00000000	      8.41631067	     -5.86492938	      9.40967899	    -62.47892063	     19.26135499	     -2.48972784	      0.00000000	    -25.28241192	      7.94280166	     -9.93110144
      6.63500000	     12.83339841	     -4.08049541	     16.60647819	      2.59491731	      0.94004074	     -0.18784812	    -14.20039172	     11.44463440	     -6.09273589	     -3.88255733	     20.21630303	     -4.94571266	      0.00000000	      8.91979818	     -5.49261454	      8.96192658	    -61.55691942	     19.58187736	     -2.18552956	      0.00000000	    -25.37486881	      7.64458767	     -9.33232429
      6.64000000	     12.77700542	     -3.96220539	     16.18057831	      2.60036559	      0.94010121	     -0.18728828	    -14.67152698	     11.31837449	     -5.97083675	     -3.65754087	     20.39584036	     -4.58792759	      0.00000000	      9.40042751	     -5.14117446	      8.54301495	    -60.55578098	     19.90171863	     -1.84451449	      0.00000000	    -25.46987385	      7.36945981	     -8.75807161
      6.64500000	     12.73696516	     -3.85671041	     15.73834174	      2.60581186	      0.94014241	     -0.18672496	    -15.15097847	     11.19941727	     -5.84335725	     -3.44246965	     20.56646793	     -4.23097980	      0.00000000	      9.83988553	     -4.82173776	      8.11824110	    -59.46962002	     20.18614569	     -1.49827288	      0.00000000	    -25.58198302	      7.10656704	     -8.15590804
      6.65000000	     12.70602544	     -3.76334838	     15.31170784	      2.61123431	      0.94014310	     -0.18618145	    -15.62724486	     11.09272885	     -5.72268646	     -3.24015363	     20.72686595	     -3.89584709	      0.00000000	     10.25538033	     -4.52538786	      7.72988585	    -58.30650117	     20.45274786	     -1.12120524	      0.00000000	    -25.69826099	      6.85881480	     -7.57702587
      6.65500000	     12.66535504	     -3.68837972	     14.90473487	      2.61662813	      0.94006036	     -0.18570950	    -16.07175683	     10.99773934	     -5.60825940	     -3.06698546	     20.92942216	     -3.56488116	      0.00000000	     10.66409764	     -4.24333264	      7.38966331	    -57.06875167	     20.75369448	     -0.72951804	      0.00000000	    -25.80109277	      6.65084381	     -7.03579124
      6.66000000	     12.68581665	     -3.60229185	     14.45937603	      2.62205599	      0.94005728	     -0.18518689	    -16.59057551	     10.89373683	     -5.44523467	     -2.88623349	     21.06742018	     -3.28692903	      0.00000000	     10.96055398	     -3.98994314	      7.01968680	    -55.72562322	     20.96512043	     -0.34685505	      0.00000000	    -25.97233551	      6.41484137	     -6.43100515
      6.66500000	     12.65433259	     -3.56163060	     14.07252261	      2.62739625	      0.93990643	     -0.18480133	    -17.01332076	     10.82310152	     -5.33883278	     -2.75262300	     21.24103058	     -2.95578787	      0.00000000	     11.31810491	     -3.75291107	      6.75525201	    -54.32844641	     21.21408713	      0.05296237	      0.00000000	    -26.08512507	      6.25538784	     -5.89725388
      6.67000000	     12.64132437	     -3.52528336	     13.67495975	      2.63277119	      0.93974477	     -0.18441048	    -17.45510189	     10.75501525	     -5.20655018	     -2.62314266	     21.41555917	     -2.67204969	      0.00000000	     11.61911554	     -3.53999999	      6.49802118	    -52.84403136	     21.43738510	      0.45955689	      0.00000000	    -26.21095539	      6.09877106	     -5.35988378
      6.67500000	     12.66690158	     -3.48997447	     13.26928151	      2.63816235	      0.93960831	     -0.18403013	    -17.93976030	     10.68857752	     -5.04821026	     -2.49214971	     21.56422209	     -2.42403120	      0.00000000	     11.84041105	     -3.34784256	      6.25920335	    -51.27059409	     21.60323145	      0.85322319	      0.00000000	    -26.37649517	      5.94564230	     -4.80780883
      6.68000000	     12.61078423	     -3.49854062	     12.99069489	      2.64352628	      0.93927586	     -0.18378018	    -18.30685358	     10.68253512	     -4.97683392	     -2.38351179	     21.71918203	     -2.21242759	      0.00000000	     12.16203987	     -3.16317069	      6.19193551	    -49.65905644	     21.79608515	      1.33836411	      0.00000000	    -26.43241638	      5.86910656	     -4.43403817
      6.68500000	     12.75894372	     -3.43947712	     12.51193812	      2.64892188	      0.93925538	     -0.18340295	    -18.91885809	     10.57780089	     -4.70790642	     -2.28585044	     21.85456531	     -2.03105637	      0.00000000	     12.14235183	     -3.00044947	      5.93192400	    -47.87798329	     21.91346502	      1.63249141	      0.00000000	    -26.75705511	      5.69511337	     -3.79877119
      6.69000000	     12.74468462	     -3.48241049	     12.16348430	      2.65428578	      0.93893140	     -0.18319558	    -19.30740559	     10.57004070	     -4.59108837	     -2.23066572	     22.02747806	     -1.74791403	      0.00000000	     12.33482472	     -2.87970618	      5.86697729	    -46.09325288	     22.02273224	      1.98890801	      0.00000000	    -26.86678753	      5.65033755	     -3.30989378
      6.69500000	     12.70739125	     -3.52937208	     11.88729838	      2.65969695	      0.93853767	     -0.18300285	    -19.67083472	     10.58948803	     -4.48611046	     -2.16840759	     22.15445746	     -1.58065095	      0.00000000	     12.52749557	     -2.76560009	      5.89540173	    -44.24555871	     22.09158792	      2.43563468	      0.00000000	    -26.93696856	      5.61563866	     -2.93584896
      6.70000000	     12.75382940	     -3.56943588	     11.48220438	      2.66512890	      0.93826534	     -0.18276515	    -20.12313311	     10.55991462	     -4.27506208	     -2.14017869	     22.30464885	     -1.35068776	      0.00000000	     12.55060089	     -2.68916523	      5.83277014	    -42.28302049	     22.10387534	      2.75081075	      0.00000000	    -27.11721405	      5.55098736	     -2.39172577
      6.70500000	     12.87338917	     -3.60009829	     11.10038973	      2.67060013	      0.93803297	     -0.18258298	    -20.66755068	     10.53420567	     -4.00739777	     -2.08944294	     22.43473454	     -1.20025392	      0.00000000	     12.44868514	     -2.62140626	      5.82228588	    -40.24308464	     22.06232907	      3.00787998	      0.00000000	    -27.37370115	      5.50316219	     -1.87307714
      6.71000000	     13.06025397	     -3.64690645	     10.77531795	      2.67602731	      0.93781571	     -0.18247530	    -21.26722344	     10.54769588	     -3.76947088	     -2.05825544	     22.51063150	     -1.11914920	      0.00000000	     12.25200548	     -2.57418459	      5.92248876	    -38.15054799	     21.96080083	      3.17695710	      0.00000000	    -27.71295527	      5.50093945	     -1.40726422
      6.71500000	     13.12939770	     -3.75543804	     10.46034654	      2.68153705	      0.93741199	     -0.18238626	    -21.72179592	     10.59613996	     -3.55444402	     -2.06024862	     22.62938615	     -0.95382812	      0.00000000	     12.16407348	     -2.57933689	      6.07017086	    -36.03053561	     21.83586330	      3.37635018	      0.00000000	    -27.89384062	      5.54504479	     -0.96594309
      6.72000000	     13.14401860	     -3.89124536	     10.16251199	      2.68708508	      0.93691326	     -0.18230920	    -22.10089365	     10.66282123	     -3.36121470	     -2.09653383	     22.75514136	     -0.77593739	      0.00000000	     12.10968767	     -2.61157209	      6.27574707	    -33.87832557	     21.62501096	      3.55099168	      0.00000000	    -28.00732013	      5.60536308	     -0.53314525
